<svg xmlns="http://www.w3.org/2000/svg" viewBox="0 0 1024 1024">
  <defs>
    <radialGradient id="bgGlow" cx="50%" cy="46%" r="56%">
      <stop offset="0%" stop-color="#3a150d" stop-opacity="0.95"/>
      <stop offset="65%" stop-color="#120806" stop-opacity="0.98"/>
      <stop offset="100%" stop-color="#120806" stop-opacity="0"/>
    </radialGradient>
    <linearGradient id="accentGrad" x1="18%" y1="18%" x2="82%" y2="82%">
      <stop offset="0%" stop-color="#ff7b1f"/>
      <stop offset="100%" stop-color="#c21414"/>
    </linearGradient>
    <clipPath id="planetClip"><circle cx="512" cy="512" r="280"/></clipPath>
    <filter id="softGlow" x="-50%" y="-50%" width="200%" height="200%"><feGaussianBlur stdDeviation="12"/></filter>
  </defs>
  <circle cx="512" cy="512" r="430" fill="url(#bgGlow)"/>
  <circle cx="512" cy="512" r="285" fill="#120806" stroke="rgba(255,255,255,.1)"/>
  <g clip-path="url(#planetClip)">
    <circle cx="512" cy="512" r="286" fill="#120806"/>
    <circle cx="420" cy="430" r="240" fill="url(#accentGrad)" opacity="0.12"/>
    
      <path d="M366 706 L366 496 L514 372 L660 494 L660 706 Z" fill="#170807" opacity="0.92"/>
      <path d="M366 494 L514 382 L660 494" stroke="#5b2014" stroke-width="14" fill="none" opacity="0.78"/>
      <path d="M444 706 V590 H586 V706" stroke="#39130b" stroke-width="18" fill="none" opacity="0.82"/>
      <path d="M512 320 C482 354 488 390 516 414 C478 434 470 482 500 514 C538 476 564 444 576 410 C588 374 580 340 548 310 C550 338 540 358 512 320 Z" fill="url(#accentGrad)" opacity="0.92"/>
      <path d="M420 516 L470 458 M546 532 L612 458 M504 624 L544 574" stroke="#ff8f3b" stroke-width="10" opacity="0.78" stroke-linecap="round"/>
    
  </g>
  <ellipse cx="512" cy="520" rx="404" ry="88" fill="none" stroke="#ff7b1f" stroke-opacity="0.52" stroke-width="14" transform="rotate(-14 512 520)"/>
  <ellipse cx="512" cy="520" rx="404" ry="88" fill="none" stroke="white" stroke-opacity="0.18" stroke-width="4" transform="rotate(-14 512 520)"/>
  <circle cx="512" cy="512" r="282" fill="none" stroke="white" stroke-opacity="0.16" stroke-width="8"/>
  <circle cx="512" cy="512" r="306" fill="none" stroke="#c21414" stroke-opacity="0.22" stroke-width="10" filter="url(#softGlow)"/>
  <text x="512" y="870" font-family="Arial, Helvetica, sans-serif" font-size="42" fill="white" fill-opacity="0.42" text-anchor="middle" letter-spacing="12">TF</text>
</svg>