<svg xmlns="http://www.w3.org/2000/svg" viewBox="0 0 100 100"><defs><linearGradient id="g" x2=".7" y2="1"><stop stop-color="#fff9e8"/><stop offset=".3" stop-color="#87edfa"/><stop offset="1" stop-color="#147388"/></linearGradient></defs><g transform="translate(0 3)" fill="#147388" stroke="#147388" stroke-width="7" stroke-linejoin="round" stroke-linecap="round"><path d="M13 22Q34 15 50 28Q66 15 87 22V77Q66 70 50 83Q34 70 13 77Z"/><path d="M50 28V83M23 36 40 38M23 48 40 50M60 38 77 36M60 50 77 48" fill="none"/></g><g fill="url(#g)" stroke="#87edfa" stroke-width="4" stroke-linejoin="round" stroke-linecap="round"><path d="M13 22Q34 15 50 28Q66 15 87 22V77Q66 70 50 83Q34 70 13 77Z"/><path d="M50 28V83M23 36 40 38M23 48 40 50M60 38 77 36M60 50 77 48" fill="none"/></g><path d="m85 9 2 6 6 2-6 2-2 6-2-6-6-2 6-2Z" fill="#87edfa"/></svg>