<svg xmlns="http://www.w3.org/2000/svg" viewBox="0 0 580 760"><rect width="100%" height="100%" fill="#111"/><image href="../notes/classic/paw_note_classic_left.svg" x="20" y="20" width="110" height="110"/><text x="75" y="132" font-family="Arial" font-size="12" text-anchor="middle" fill="#fff">classic left</text><image href="../notes/classic/paw_note_classic_down.svg" x="155" y="20" width="110" height="110"/><text x="210" y="132" font-family="Arial" font-size="12" text-anchor="middle" fill="#fff">classic down</text><image href="../notes/classic/paw_note_classic_right.svg" x="290" y="20" width="110" height="110"/><text x="345" y="132" font-family="Arial" font-size="12" text-anchor="middle" fill="#fff">classic right</text><image href="../notes/classic/paw_note_classic_up.svg" x="425" y="20" width="110" height="110"/><text x="480" y="132" font-family="Arial" font-size="12" text-anchor="middle" fill="#fff">classic up</text><image href="../notes/stripe/paw_note_stripe_left.svg" x="20" y="140" width="110" height="110"/><text x="75" y="252" font-family="Arial" font-size="12" text-anchor="middle" fill="#fff">stripe left</text><image href="../notes/stripe/paw_note_stripe_down.svg" x="155" y="140" width="110" height="110"/><text x="210" y="252" font-family="Arial" font-size="12" text-anchor="middle" fill="#fff">stripe down</text><image href="../notes/stripe/paw_note_stripe_right.svg" x="290" y="140" width="110" height="110"/><text x="345" y="252" font-family="Arial" font-size="12" text-anchor="middle" fill="#fff">stripe right</text><image href="../notes/stripe/paw_note_stripe_up.svg" x="425" y="140" width="110" height="110"/><text x="480" y="252" font-family="Arial" font-size="12" text-anchor="middle" fill="#fff">stripe up</text><image href="../notes/claw/paw_note_claw_left.svg" x="20" y="260" width="110" height="110"/><text x="75" y="372" font-family="Arial" font-size="12" text-anchor="middle" fill="#fff">claw left</text><image href="../notes/claw/paw_note_claw_down.svg" x="155" y="260" width="110" height="110"/><text x="210" y="372" font-family="Arial" font-size="12" text-anchor="middle" fill="#fff">claw down</text><image href="../notes/claw/paw_note_claw_right.svg" x="290" y="260" width="110" height="110"/><text x="345" y="372" font-family="Arial" font-size="12" text-anchor="middle" fill="#fff">claw right</text><image href="../notes/claw/paw_note_claw_up.svg" x="425" y="260" width="110" height="110"/><text x="480" y="372" font-family="Arial" font-size="12" text-anchor="middle" fill="#fff">claw up</text><image href="../notes/solid/paw_note_solid_left.svg" x="20" y="380" width="110" height="110"/><text x="75" y="492" font-family="Arial" font-size="12" text-anchor="middle" fill="#fff">solid left</text><image href="../notes/solid/paw_note_solid_down.svg" x="155" y="380" width="110" height="110"/><text x="210" y="492" font-family="Arial" font-size="12" text-anchor="middle" fill="#fff">solid down</text><image href="../notes/solid/paw_note_solid_right.svg" x="290" y="380" width="110" height="110"/><text x="345" y="492" font-family="Arial" font-size="12" text-anchor="middle" fill="#fff">solid right</text><image href="../notes/solid/paw_note_solid_up.svg" x="425" y="380" width="110" height="110"/><text x="480" y="492" font-family="Arial" font-size="12" text-anchor="middle" fill="#fff">solid up</text><image href="../notes/flame/paw_note_flame_left.svg" x="20" y="500" width="110" height="110"/><text x="75" y="612" font-family="Arial" font-size="12" text-anchor="middle" fill="#fff">flame left</text><image href="../notes/flame/paw_note_flame_down.svg" x="155" y="500" width="110" height="110"/><text x="210" y="612" font-family="Arial" font-size="12" text-anchor="middle" fill="#fff">flame down</text><image href="../notes/flame/paw_note_flame_right.svg" x="290" y="500" width="110" height="110"/><text x="345" y="612" font-family="Arial" font-size="12" text-anchor="middle" fill="#fff">flame right</text><image href="../notes/flame/paw_note_flame_up.svg" x="425" y="500" width="110" height="110"/><text x="480" y="612" font-family="Arial" font-size="12" text-anchor="middle" fill="#fff">flame up</text><image href="../notes/bold/paw_note_bold_left.svg" x="20" y="620" width="110" height="110"/><text x="75" y="732" font-family="Arial" font-size="12" text-anchor="middle" fill="#fff">bold left</text><image href="../notes/bold/paw_note_bold_down.svg" x="155" y="620" width="110" height="110"/><text x="210" y="732" font-family="Arial" font-size="12" text-anchor="middle" fill="#fff">bold down</text><image href="../notes/bold/paw_note_bold_right.svg" x="290" y="620" width="110" height="110"/><text x="345" y="732" font-family="Arial" font-size="12" text-anchor="middle" fill="#fff">bold right</text><image href="../notes/bold/paw_note_bold_up.svg" x="425" y="620" width="110" height="110"/><text x="480" y="732" font-family="Arial" font-size="12" text-anchor="middle" fill="#fff">bold up</text></svg>