<svg xmlns="http://www.w3.org/2000/svg" viewBox="0 0 512 512">
  <defs>
    <radialGradient id="bg" cx="46%" cy="38%" r="68%">
      <stop offset="0%" stop-color="#1b2d52" stop-opacity="0.96"/>
      <stop offset="68%" stop-color="#08111f" stop-opacity="0.98"/>
      <stop offset="100%" stop-color="#08111f" stop-opacity="0"/>
    </radialGradient>
    <linearGradient id="accent" x1="18%" y1="18%" x2="82%" y2="82%">
      <stop offset="0%" stop-color="#55c7ff"/>
      <stop offset="100%" stop-color="#ff4c5a"/>
    </linearGradient>
  </defs>
  <circle cx="256" cy="256" r="204" fill="url(#bg)"/>
  <circle cx="256" cy="256" r="146" fill="#08111f" stroke="url(#accent)" stroke-width="12"/>
  <circle cx="256" cy="256" r="128" fill="none" stroke="white" stroke-opacity="0.18" stroke-width="3"/>
  <ellipse cx="256" cy="262" rx="186" ry="34" fill="none" stroke="white" stroke-opacity="0.14" stroke-width="5" transform="rotate(-18 256 262)"/>
  <ellipse cx="256" cy="262" rx="186" ry="34" fill="none" stroke="url(#accent)" stroke-opacity="0.35" stroke-width="10" transform="rotate(-18 256 262)"/>
  <path d="M212 282 L252 282 L322 230 L322 378 L252 326 L212 326 Z" fill="white" opacity="0.94"/><path d="M350 252 C392 272 392 336 350 356" stroke="white" stroke-width="18" fill="none" stroke-linecap="round" opacity="0.92"/><path d="M382 226 C446 262 446 346 382 382" stroke="white" stroke-width="14" fill="none" stroke-linecap="round" opacity="0.72"/>
  <text x="256" y="96" font-family="Arial, Helvetica, sans-serif" font-size="22" fill="white" fill-opacity="0.42" text-anchor="middle" letter-spacing="6">AW · AUDIO</text>
</svg>